<svg width="59" height="60" viewBox="0 0 59 60" fill="none" xmlns="http://www.w3.org/2000/svg">
    <circle cx="29.4194" cy="30.0767" r="29.3379" fill="white" fill-opacity="0.28"/>
    <path d="M27.8594 18.875C27.8594 19.7636 27.5261 20.572 26.9775 21.1742L28.3567 24.2117C28.9822 24.0324 29.6384 23.9375 30.3203 23.9375C32.2737 23.9375 34.1348 24.7549 35.4626 26.0838L39.4412 23.0779C39.3796 22.8143 39.3438 22.5348 39.3438 22.25C39.3438 20.3858 40.8152 18.875 42.625 18.875C44.4348 18.875 45.9062 20.3858 45.9062 22.25C45.9062 24.1115 44.4348 25.625 42.625 25.625C41.9944 25.625 41.3997 25.4404 40.8972 25.1187L36.9187 28.1246C37.4211 29.1477 37.7031 30.3078 37.7031 31.5312C37.7031 32.5068 37.5237 33.4402 37.1956 34.2998L40.6511 36.4303C41.1997 36.0031 41.8816 35.75 42.625 35.75C44.4348 35.75 45.9062 37.2635 45.9062 39.125C45.9062 40.9865 44.4348 42.5 42.625 42.5C40.8152 42.5 39.3438 40.9865 39.3438 39.125C39.3438 38.9457 39.3591 38.7717 39.3848 38.6029L35.9292 36.4672C34.5295 38.0967 32.5659 39.125 30.3203 39.125C26.6597 39.125 23.6245 36.3881 22.9939 32.7969H19.4153C18.9333 34.0361 17.7521 34.9062 16.375 34.9062C14.5626 34.9062 13.0938 33.3928 13.0938 31.5312C13.0938 29.6697 14.5626 28.1562 16.375 28.1562C17.7521 28.1562 18.9333 29.0264 19.4153 30.2656H22.9939C23.3784 28.2037 24.5217 26.4213 26.1265 25.2822L24.7473 22.2447C24.6909 22.2025 24.6345 22.25 24.5781 22.25C22.7683 22.25 21.2969 20.7392 21.2969 18.875C21.2969 17.0108 22.7683 15.5 24.5781 15.5C26.3879 15.5 27.8594 17.0108 27.8594 18.875ZM30.3203 36.5938C33.0376 36.5938 35.2422 34.3262 35.2422 31.5312C35.2422 28.6889 33.0376 26.4688 30.3203 26.4688C27.5569 26.4688 25.3984 28.6889 25.3984 31.5312C25.3984 34.3262 27.5569 36.5938 30.3203 36.5938Z" fill="#797979"/>
</svg>
