<svg width="59" height="60" viewBox="0 0 59 60" fill="none" xmlns="http://www.w3.org/2000/svg">
    <circle cx="29.4194" cy="30.0767" r="29.3379" fill="white" fill-opacity="0.28" />
    <path
    d="M40.677 29.5709L33.001 28.4517L29.5732 21.4775C28.9598 20.2323 27.1767 20.2228 26.5541 21.4775L23.1205 28.3917L15.4453 29.5709C14.0626 29.71 13.5079 31.4752 14.5149 32.4493L20.0719 37.8694L18.8194 45.5306C18.5905 46.9135 20.0426 47.9513 21.2599 47.3017L28.1294 43.6849L34.9952 47.3017C35.5629 47.6038 36.2499 47.5497 36.7714 47.1743C37.2182 46.7989 37.5492 46.1555 37.4393 45.5329L36.0626 37.8694L41.6233 32.4493C42.6179 31.4825 42.0613 29.71 40.677 29.5709Z"
    fill="#797979"
    />
    <path
    opacity="0.4"
    d="M51.2825 26.0623L48.3806 24.8443L47.1633 21.9416C47.0992 21.8043 46.9618 21.7217 46.8153 21.7217C46.6688 21.7217 46.5315 21.8043 46.4675 21.9416L45.2502 24.8443L42.3468 26.0623C42.2094 26.1264 42.1269 26.2634 42.1269 26.4099C42.1269 26.5564 42.2094 26.694 42.3468 26.7581L45.2487 27.9762L46.466 30.8788C46.5301 31.0161 46.6673 31.0982 46.8138 31.0982C46.9603 31.0982 47.0977 31.0161 47.1618 30.8788L48.3791 27.9762L51.281 26.7581C51.4216 26.6922 51.5022 26.553 51.5022 26.4065C51.5022 26.2601 51.4216 26.1209 51.2825 26.0623ZM44.4708 15.8595C44.4708 15.6764 44.3703 15.5025 44.1963 15.4201L40.5596 13.9097L39.0494 10.2747C38.9703 10.1007 38.7945 10 38.6114 10C38.4283 10 38.2545 10.1007 38.1721 10.2747L36.6618 13.9097L33.0246 15.4208C32.8506 15.5032 32.7527 15.677 32.7527 15.8601C32.7527 16.0432 32.8506 16.2173 33.0246 16.2997L36.6618 17.8108L38.1721 21.4488C38.2545 21.6227 38.4283 21.7203 38.6114 21.7203C38.7945 21.7203 38.9686 21.6227 39.051 21.4488L40.5612 17.8108L44.1956 16.2997C44.3683 16.2169 44.4708 16.0426 44.4708 15.8595Z"
    fill="white"
    />
</svg>