<svg width="59" height="60" viewBox="0 0 59 60" fill="none" xmlns="http://www.w3.org/2000/svg">
  <circle cx="29.4194" cy="30.0767" r="29.3379" fill="white" fill-opacity="0.28" />
  <path
    d="M23.0913 39.9144L21.1239 37.8897C20.5827 37.4058 20.3917 36.6163 20.5764 35.8968C20.7674 35.3301 21.0221 34.5916 21.385 33.7448H14.6487C14.0998 33.7448 13.5927 33.4519 13.3209 32.9743C13.0491 32.4968 13.0543 31.9111 13.3343 31.4399L16.6753 25.8051C17.5005 24.4107 18.9993 23.5002 20.6209 23.5002H25.8546C26.0074 23.3028 26.1603 23.0673 26.3131 22.8381C31.5276 15.1486 39.2954 14.8893 43.9306 15.7436C44.6755 15.8798 45.2486 16.4538 45.3823 17.1943C46.2355 21.8321 45.9808 29.5998 38.2894 34.8144C38.0666 34.9672 37.7673 35.12 37.5699 35.2155V40.5065C37.5699 42.1301 36.7168 43.6264 35.3224 44.4541L29.6876 47.7904C29.2164 48.0705 28.6307 48.0769 28.1531 47.8095C27.6756 47.5357 27.3827 47.0263 27.3827 46.4788V39.6533C26.485 39.959 25.7018 40.22 25.1097 40.411C24.3966 40.6402 23.6198 40.4429 23.0913 39.9144ZM37.5699 26.047C38.9771 26.047 40.1168 24.9646 40.1168 23.5002C40.1168 22.1504 38.9771 20.9534 37.5699 20.9534C36.1628 20.9534 35.0231 22.1504 35.0231 23.5002C35.0231 24.9646 36.1628 26.047 37.5699 26.047Z"
    fill="#797979"
  />
</svg>