<svg width="16" height="16" viewBox="0 0 16 16" fill="none" xmlns="http://www.w3.org/2000/svg">
    <path
    d="M14.8089 10.7495C14.8704 10.4213 14.8704 10.0815 14.8089 9.75335L15.4124 9.40178C15.4827 9.3637 15.5149 9.28167 15.4915 9.20256C15.3333 8.69865 15.0637 8.23856 14.7122 7.85769C14.6594 7.7991 14.5715 7.78445 14.5012 7.82547L13.8977 8.17422C13.6427 7.95742 13.3497 7.7875 13.0333 7.67617V6.97596C13.0333 6.89686 12.9747 6.82654 12.8985 6.81189C12.3771 6.69471 11.8438 6.69763 11.3458 6.81189C11.2696 6.82654 11.2139 6.89686 11.2139 6.97596V7.67629C10.8975 7.78762 10.6046 7.95754 10.3496 8.17434L9.74392 7.82441C9.67654 7.7834 9.58865 7.79805 9.53298 7.85664C9.18141 8.23751 8.91187 8.69759 8.75648 9.20151C8.73304 9.28061 8.76527 9.36264 8.83265 9.40073L9.43618 9.7523C9.37759 10.0804 9.37759 10.4203 9.43618 10.7484L8.83265 11.1C8.76234 11.1381 8.73304 11.2201 8.75648 11.2992C8.91176 11.8031 9.18141 12.2602 9.53298 12.6441C9.58865 12.7027 9.67361 12.7173 9.74392 12.6763L10.3505 12.3275C10.6055 12.5443 10.8985 12.7143 11.2149 12.8256V13.5259C11.2149 13.605 11.2706 13.6753 11.3467 13.69C11.8713 13.8072 12.4014 13.8042 12.8995 13.69C12.9757 13.6753 13.0343 13.605 13.0343 13.5259V12.8256C13.3507 12.7143 13.6436 12.5443 13.8986 12.3275L14.5022 12.6763C14.5696 12.7173 14.6604 12.7027 14.7131 12.6441C15.0647 12.2632 15.3342 11.8031 15.4924 11.2992C15.5159 11.2201 15.4836 11.1381 15.4133 11.1L14.8089 10.7495ZM12.1252 11.387C11.4983 11.387 10.9885 10.8772 10.9885 10.2502C10.9885 9.62327 11.4983 9.1135 12.1252 9.1135C12.7522 9.1135 13.262 9.62327 13.262 10.2502C13.262 10.8772 12.7534 11.387 12.1252 11.387Z"
    fill="#555559"
    />
    <path
    opacity="0.4"
    d="M5.7501 8.00011C7.40716 8.00011 8.75015 6.65688 8.75015 5.00005C8.75015 3.34323 7.40716 2 5.7501 2C4.09303 2 2.75004 3.34323 2.75004 5.00005C2.75004 6.65688 4.09303 8.00011 5.7501 8.00011ZM10.4635 13.5268V13.3118C10.4095 13.2825 10.3563 13.2518 10.3039 13.2197L10.1206 13.325C9.97996 13.4071 9.81993 13.4504 9.65774 13.4504C9.40672 13.4504 9.16249 13.3452 8.97874 13.1516C8.54725 12.6807 8.22193 12.1168 8.03607 11.5133C7.91063 11.09 8.09098 10.6491 8.45397 10.453L8.64189 10.3435C8.64033 10.2821 8.64033 10.2207 8.64189 10.1593L8.46247 10.0548C8.17419 9.89181 8.00778 9.59398 8.00215 9.27241C7.66263 9.17904 7.30637 9.12513 6.9384 9.12513H4.56179C2.31902 9.12513 0.5 10.9463 0.5 13.1893C0.5 13.6369 0.863757 14.0002 1.31236 14.0002H10.1869C10.3211 14.0002 10.4424 13.9597 10.5539 13.9021C10.501 13.7846 10.4635 13.6604 10.4635 13.5268Z"
    fill="#555559"
    />
</svg>