<svg width="16" height="16" viewBox="0 0 16 16" fill="none" xmlns="http://www.w3.org/2000/svg">
    <path
    opacity="0.4"
    d="M15.2031 2.81771L13.9323 1.54688C13.7414 1.35675 13.483 1.25 13.2135 1.25C12.9441 1.25 12.6857 1.35675 12.4948 1.54688L11.5729 2.46876C11.5254 2.51648 11.4987 2.58109 11.4987 2.64844C11.4987 2.71579 11.5254 2.7804 11.5729 2.82813L13.9219 5.17709C13.9696 5.2246 14.0342 5.25128 14.1016 5.25128C14.1689 5.25128 14.2335 5.2246 14.2812 5.17709L15.2031 4.25521C15.3932 4.06433 15.5 3.80588 15.5 3.53646C15.5 3.26704 15.3932 3.0086 15.2031 2.81771ZM11.6328 9L10.5911 10.0417C10.5333 10.1009 10.5006 10.1802 10.5 10.263V12.9141H2.16667V4.58073H8.15104C8.23383 4.5801 8.31316 4.54744 8.37239 4.48959L9.41406 3.44792C9.45792 3.40421 9.4878 3.34846 9.49993 3.28774C9.51205 3.22702 9.50586 3.16407 9.48214 3.10687C9.45843 3.04968 9.41825 3.00082 9.36672 2.96649C9.31519 2.93216 9.25462 2.91392 9.1927 2.91407H1.75C1.41848 2.91407 1.10054 3.04576 0.866116 3.28018C0.631696 3.5146 0.5 3.83255 0.5 4.16407L0.5 13.3307C0.5 13.6622 0.631696 13.9802 0.866116 14.2146C1.10054 14.449 1.41848 14.5807 1.75 14.5807H10.9167C11.2482 14.5807 11.5661 14.449 11.8005 14.2146C12.035 13.9802 12.1667 13.6622 12.1667 13.3307V9.22136C12.1668 9.15944 12.1486 9.09887 12.1142 9.04734C12.0799 8.99581 12.0311 8.95563 11.9739 8.93192C11.9167 8.9082 11.8537 8.90201 11.793 8.91413C11.7323 8.92626 11.6765 8.95614 11.6328 9Z"
    fill="#555559"
    />
    <path
    d="M13.3334 5.76299C13.3809 5.81072 13.4076 5.87533 13.4076 5.94268C13.4076 6.01003 13.3809 6.07464 13.3334 6.12237L7.64587 11.8099L5.2292 12.0781C5.15361 12.0866 5.07708 12.0779 5.00528 12.0528C4.93349 12.0277 4.86828 11.9867 4.81449 11.9329C4.7607 11.8791 4.71972 11.8139 4.69459 11.7421C4.66945 11.6703 4.66081 11.5938 4.6693 11.5182L4.93753 9.10153L10.625 3.41404C10.6728 3.36652 10.7374 3.33984 10.8047 3.33984C10.8721 3.33984 10.9367 3.36652 10.9844 3.41404L13.3334 5.76299Z"
    fill="#555559"
    />
</svg>