<svg width="16" height="16" viewBox="0 0 16 16" fill="none" xmlns="http://www.w3.org/2000/svg">
    <path
    opacity="0.4"
    d="M5.18383 12.6788H3.3093C2.78943 12.6788 2.37453 12.2589 2.37453 11.7441V4.24595C2.37453 3.72608 2.79443 3.31118 3.3093 3.31118H5.18383C5.7037 3.31118 6.11859 2.89129 6.11859 2.37642C6.11859 1.86155 5.6987 1.44165 5.18383 1.44165H3.3093C1.75469 1.44165 0.5 2.70134 0.5 4.25095V11.7491C0.5 13.3037 1.75968 14.5584 3.3093 14.5584H5.18383C5.7037 14.5584 6.11859 14.1385 6.11859 13.6236C6.11859 13.1087 5.6987 12.6888 5.18383 12.6888V12.6788Z"
    fill="#555559"
    />
    <path
    d="M15.2213 8.65491L11.4723 12.404C11.1074 12.7689 10.5125 12.7689 10.1476 12.404C9.78269 12.0391 9.78269 11.4442 10.1476 11.0793L12.2971 8.92985H6.12361C5.60374 8.92985 5.18884 8.50995 5.18884 7.99508C5.18884 7.48021 5.60874 7.06031 6.12361 7.06031H12.2971L10.1526 4.91085C9.78769 4.54594 9.78769 3.95109 10.1526 3.58618C10.5175 3.22127 11.1124 3.22127 11.4773 3.58618L15.2263 7.33524C15.5912 7.70515 15.5912 8.295 15.2263 8.65991L15.2213 8.65491Z"
    fill="#555559"
    />
</svg>