<svg width="16" height="12" viewBox="0 0 16 12" fill="none" xmlns="http://www.w3.org/2000/svg">
    <path
    d="M4.20799 10.5078C3.37262 10.5078 2.6947 9.83436 2.6947 9.00134C2.6947 8.94033 2.69799 8.88166 2.70479 8.823L5.4634 9.8414C5.1912 10.245 4.73127 10.5078 4.20799 10.5078ZM11.7733 11.2611C11.2758 11.2611 10.8347 11.0241 10.5601 10.6533L13.2845 9.66306C13.2868 9.69357 13.2868 9.72407 13.2868 9.75458C13.2868 10.5876 12.6086 11.2611 11.7733 11.2611Z"
    fill="#555559"
    />
    <path
    opacity="0.4"
    d="M6.34566 6.95996C6.62021 7.70616 6.64837 8.52041 6.43014 9.28539L6.40198 9.3769L0.99318 7.40815C0.726377 7.31194 0.537385 7.07259 0.504935 6.791C0.472473 6.50942 0.601986 6.23252 0.839715 6.07531L1.03166 5.95094C1.84287 5.39715 2.46095 4.63922 2.79439 3.72875L3.13793 2.79013C3.70814 1.18134 5.49152 0.351831 7.12237 0.938235C7.23501 0.979065 7.3453 1.026 7.44854 1.07809C5.9444 2.0674 5.25921 3.99391 5.90686 5.75852L6.34566 6.95996ZM6.61082 5.50275C5.99837 3.82966 6.85956 1.97846 8.535 1.36883C10.2081 0.759427 12.0642 1.62179 12.6767 3.29464L13.1155 4.49608C13.444 5.39246 14.0494 6.16213 14.8425 6.69245L15.1664 6.90833C15.401 7.06555 15.5277 7.32132 15.4949 7.62168C15.4597 7.90327 15.2719 8.11915 15.0068 8.23648L8.0258 10.7778C7.76064 10.874 7.46262 10.813 7.25613 10.6206C7.04963 10.4282 6.9675 10.1348 7.04494 9.86499L7.15288 9.49189C7.41569 8.57673 7.38049 7.57945 7.05198 6.70418L6.61082 5.50275Z"
    fill="black"
    />
</svg>