<svg width="16" height="16" viewBox="0 0 16 16" fill="none" xmlns="http://www.w3.org/2000/svg">
    <path
    d="M3.84375 4.25C3.84375 3.21436 4.68457 2.375 5.71875 2.375H10.4062C11.4404 2.375 12.2812 3.21436 12.2812 4.25V8C12.2812 9.03418 11.4404 9.875 10.4062 9.875H5.71875C4.68457 9.875 3.84375 9.03418 3.84375 8V4.25ZM6.1875 4.25C5.66895 4.25 5.25 4.66895 5.25 5.1875C5.25 5.70605 5.66895 6.125 6.1875 6.125C6.70605 6.125 7.125 5.70605 7.125 5.1875C7.125 4.66895 6.70605 4.25 6.1875 4.25ZM9.9375 6.125C10.4561 6.125 10.875 5.70605 10.875 5.1875C10.875 4.66895 10.4561 4.25 9.9375 4.25C9.41895 4.25 9 4.66895 9 5.1875C9 5.70605 9.41895 6.125 9.9375 6.125ZM6.1875 8.46875C6.44531 8.46875 6.65625 8.25781 6.65625 8C6.65625 7.74219 6.44531 7.53125 6.1875 7.53125C5.92969 7.53125 5.71875 7.74219 5.71875 8C5.71875 8.25781 5.92969 8.46875 6.1875 8.46875ZM8.0625 7.53125C7.80469 7.53125 7.59375 7.74219 7.59375 8C7.59375 8.25781 7.80469 8.46875 8.0625 8.46875C8.32031 8.46875 8.53125 8.25781 8.53125 8C8.53125 7.74219 8.32031 7.53125 8.0625 7.53125ZM9.9375 8.46875C10.1953 8.46875 10.4062 8.25781 10.4062 8C10.4062 7.74219 10.1953 7.53125 9.9375 7.53125C9.67969 7.53125 9.46875 7.74219 9.46875 8C9.46875 8.25781 9.67969 8.46875 9.9375 8.46875ZM1.5 13.625C1.5 12.0459 2.75918 10.8125 4.3125 10.8125H11.8125C13.3652 10.8125 14.625 12.0459 14.625 13.625V14.5625C14.625 15.0811 14.2061 15.5 13.6875 15.5H11.8125V13.625C11.8125 13.1064 11.3936 12.6875 10.875 12.6875H5.25C4.73145 12.6875 4.3125 13.1064 4.3125 13.625V15.5H2.4375C1.91982 15.5 1.5 15.0811 1.5 14.5625V13.625Z"
    fill="white"
    />
    <path
    opacity="0.4"
    d="M8.53125 2.375H7.59375V0.96875C7.59375 0.709883 7.80469 0.5 8.0625 0.5C8.32031 0.5 8.53125 0.709883 8.53125 0.96875V2.375ZM2.90625 4.71875V7.53125C2.90625 7.78906 2.69648 8 2.4375 8C2.17852 8 1.96875 7.78906 1.96875 7.53125V4.71875C1.96875 4.46094 2.17852 4.25 2.4375 4.25C2.69648 4.25 2.90625 4.46094 2.90625 4.71875ZM6.65625 15.5H5.71875V14.0938C5.71875 13.8359 5.92969 13.625 6.1875 13.625C6.44531 13.625 6.65625 13.8359 6.65625 14.0938V15.5ZM8.53125 15.5H7.59375V14.0938C7.59375 13.8359 7.80469 13.625 8.0625 13.625C8.32031 13.625 8.53125 13.8359 8.53125 14.0938V15.5ZM9.9375 13.625C10.1953 13.625 10.4062 13.8359 10.4062 14.0938V15.5H9.46875V14.0938C9.46875 13.8359 9.67969 13.625 9.9375 13.625ZM14.1562 7.53125C14.1562 7.78906 13.9453 8 13.6875 8C13.4297 8 13.2188 7.78906 13.2188 7.53125V4.71875C13.2188 4.46094 13.4297 4.25 13.6875 4.25C13.9453 4.25 14.1562 4.46094 14.1562 4.71875V7.53125Z"
    fill="white"
    />
</svg>