<svg width="60" height="41" viewBox="0 0 60 41" fill="none" xmlns="http://www.w3.org/2000/svg">
<path d="M38.7761 29.0694C38.7761 26.7115 39.709 24.4501 41.3696 22.7828C43.0302 21.1155 45.2825 20.1788 47.6309 20.1788C49.9794 20.1788 52.2317 21.1155 53.8923 22.7828C55.5529 24.4501 56.4858 26.7115 56.4858 29.0694C56.4858 31.4274 55.5529 33.6887 53.8923 35.356C52.2317 37.0233 49.9794 37.96 47.6309 37.96C45.2825 37.96 43.0302 37.0233 41.3696 35.356C39.709 33.6887 38.7761 31.4274 38.7761 29.0694ZM59.0158 29.0694C59.0158 26.0378 57.8163 23.1303 55.6812 20.9867C53.5462 18.843 50.6504 17.6387 47.6309 17.6387C44.6115 17.6387 41.7157 18.843 39.5806 20.9867C37.4456 23.1303 36.2461 26.0378 36.2461 29.0694C36.2461 32.1011 37.4456 35.0085 39.5806 37.1522C41.7157 39.2959 44.6115 40.5002 47.6309 40.5002C50.6504 40.5002 53.5462 39.2959 55.6812 37.1522C57.8163 35.0085 59.0158 32.1011 59.0158 29.0694Z" fill="#99DDD8"/>
<path d="M48.5438 24.8333C48.5438 24.1 47.9688 23.5 47.2661 23.5C46.5633 23.5 45.9883 24.1 45.9883 24.8333V30.1667C45.9883 30.9 46.5633 31.5 47.2661 31.5H51.0994C51.8022 31.5 52.3772 30.9 52.3772 30.1667C52.3772 29.4333 51.8022 28.8333 51.0994 28.8333H48.5438V24.8333Z" fill="#99DDD8"/>
<path d="M48.5438 24.8333C48.5438 24.1 47.9688 23.5 47.2661 23.5C46.5633 23.5 45.9883 24.1 45.9883 24.8333V30.1667C45.9883 30.9 46.5633 31.5 47.2661 31.5H51.0994C51.8022 31.5 52.3772 30.9 52.3772 30.1667C52.3772 29.4333 51.8022 28.8333 51.0994 28.8333H48.5438V24.8333Z" stroke="#99DDD8"/>
<path d="M36.5373 1.77008C36.5373 1.07154 37.1066 0.5 37.8023 0.5H46.6572C47.353 0.5 47.9222 1.07154 47.9222 1.77008V10.6607C47.9222 11.3592 47.353 11.9308 46.6572 11.9308C45.9615 11.9308 45.3922 11.3592 45.3922 10.6607V4.75478L32.3313 16.6777C31.8727 17.0905 31.1849 17.1222 30.7026 16.7412L16.6411 7.45868L3.50113 17.0637C2.93189 17.4765 2.14128 17.3574 1.73016 16.7859C1.31904 16.2143 1.44553 15.4205 2.00687 15.0077L15.9217 4.84707C16.3723 4.51368 16.9969 4.52161 17.4397 4.87089L31.4142 14.082L43.5106 3.04017H37.8023C37.1066 3.04017 36.5373 2.46863 36.5373 1.77008Z" fill="#99DDD8"/>
<path d="M6.79497 35.8092V30.0026C6.79497 29.2041 6.14172 28.5509 5.3433 28.5509C4.54488 28.5509 3.89163 29.2041 3.89163 30.0026V35.8092C3.89163 36.6077 4.54488 37.2609 5.3433 37.2609C6.14172 37.2609 6.79497 36.6077 6.79497 35.8092ZM5.3433 25.6475C7.74763 25.6475 9.69832 27.5982 9.69832 30.0026V35.8092C9.69832 38.2136 7.74763 40.1643 5.3433 40.1643C2.93897 40.1643 0.988281 38.2136 0.988281 35.8092V30.0026C0.988281 27.5982 2.93897 25.6475 5.3433 25.6475ZM18.4084 21.2925C18.4084 20.4941 17.7551 19.8408 16.9567 19.8408C16.1583 19.8408 15.505 20.4941 15.505 21.2925V35.8092C15.505 36.6077 16.1583 37.2609 16.9567 37.2609C17.7551 37.2609 18.4084 36.6077 18.4084 35.8092V21.2925ZM12.6017 21.2925C12.6017 18.8882 14.5523 16.9375 16.9567 16.9375C19.361 16.9375 21.3117 18.8882 21.3117 21.2925V35.8092C21.3117 38.2136 19.361 40.1643 16.9567 40.1643C14.5523 40.1643 12.6017 38.2136 12.6017 35.8092V21.2925ZM30.0217 35.8092V27.0992C30.0217 26.3008 29.3685 25.6475 28.5701 25.6475C27.7716 25.6475 27.1184 26.3008 27.1184 27.0992V35.8092C27.1184 36.6077 27.7716 37.2609 28.5701 37.2609C29.3685 37.2609 30.0217 36.6077 30.0217 35.8092ZM28.5701 22.7442C30.9744 22.7442 32.9251 24.6949 32.9251 27.0992V35.8092C32.9251 38.2136 30.9744 40.1643 28.5701 40.1643C26.1657 40.1643 24.215 38.2136 24.215 35.8092V27.0992C24.215 24.6949 26.1657 22.7442 28.5701 22.7442Z" fill="#99DDD8"/>
</svg>
