<svg width="128" height="60" viewBox="0 0 128 60" fill="none" xmlns="http://www.w3.org/2000/svg">
<path fill-rule="evenodd" clip-rule="evenodd" d="M91.8795 29.0261C95.2468 28.7156 98.4169 27.2385 100.828 24.8277C103.555 22.1002 105.087 18.401 105.087 14.5437C105.087 10.6865 103.555 6.98725 100.828 4.25977C98.1002 1.53229 94.401 0 90.5437 0C86.6865 0 82.9872 1.53229 80.2598 4.25977C77.5323 6.98725 76 10.6865 76 14.5437C76 17.4637 76.8781 20.2931 78.488 22.6789C73.6778 21.6605 67.9862 20.8138 64.8035 20.4602C62.5573 20.2106 61.2114 19.9392 60.2203 19.615C59.2652 19.3027 58.5623 18.9172 57.601 18.3107L57.4643 18.2244C55.5765 17.0322 51.6728 14.5671 46.9257 12.9847C41.8518 11.2934 35.4941 11.7225 32.0664 12.4079C30.6014 12.7008 29.2322 13.1579 28.0941 13.6127C28.5269 10.331 26.2704 7.28093 22.9812 6.75282L12.3893 5.05217C9.04214 4.51474 5.89302 6.7925 5.35559 10.1397L0.0785378 43.0059C-0.458892 46.3531 1.81887 49.5023 5.16607 50.0397L15.7579 51.7403C18.4631 52.1747 21.0389 50.7702 22.2112 48.4485L27.5686 46.5063L27.5997 46.4939C30.0429 45.5166 32.1375 45.0717 34.2182 45.9634C37.1139 47.2044 54.3976 54.1721 63.4272 57.7499L63.4543 57.7606L63.4816 57.7705C65.5584 58.5257 71.73 60.1301 78.0425 58.3265C79.6311 57.8727 82.5328 56.6271 86.0484 55.0005C89.6227 53.3467 93.9879 51.2241 98.5892 48.9353C107.794 44.3565 117.987 39.0905 124.777 35.5275L124.855 35.487C125.289 35.2616 126.139 34.8199 126.752 34.0204C127.307 33.2977 127.63 32.3887 127.508 31.3801C127.394 30.4273 126.912 29.6336 126.354 29.0108C125.273 27.8035 123.476 26.759 121.235 25.8252C118.552 24.7072 116.411 24.3552 114.299 24.5922C112.483 24.7961 110.779 25.4399 109.03 26.1008C108.857 26.1666 108.682 26.2324 108.507 26.2981L108.435 26.3253C107.859 26.5457 98.4233 30.1553 93.6864 32.0241C93.2718 30.9695 92.6675 29.9626 91.8795 29.0261ZM88.1299 11.6249V11.6148L88.1198 11.6249C88.1097 11.4229 88.1602 11.332 88.2006 11.2613C88.2612 11.1704 88.3824 11.0492 88.6248 10.9179C89.1399 10.6452 89.8873 10.5038 90.5135 10.5139C91.3416 10.524 92.2405 10.6957 93.1798 10.928C94.0484 11.1401 94.9271 10.6149 95.1392 9.74633C95.3513 8.87774 94.8261 7.99906 93.9575 7.78697C93.3919 7.64557 92.7859 7.50417 92.1496 7.41327V6.46389C92.1496 5.5751 91.4224 4.84791 90.5336 4.84791C89.6449 4.84791 88.9177 5.5751 88.9177 6.46389V7.44357C88.3117 7.56477 87.6754 7.76676 87.0997 8.07986C85.9079 8.71615 84.7767 9.93823 84.8979 11.837C84.9989 13.453 86.0796 14.4023 87.0795 14.9376C87.9683 15.4123 89.0692 15.7254 89.9681 15.9779L90.1499 16.0284C91.1901 16.3213 91.9577 16.5536 92.493 16.8667C92.9475 17.1293 92.9677 17.2909 92.9677 17.4323C92.9778 17.6747 92.9172 17.806 92.8667 17.8868C92.8061 17.9777 92.6849 18.0989 92.4627 18.2201C91.988 18.4726 91.2709 18.6039 90.5942 18.5837C89.6546 18.554 88.7633 18.2725 87.6454 17.9193L87.5744 17.8969C87.3827 17.8364 87.1904 17.7756 86.9886 17.7151C86.1402 17.4424 85.2413 17.9272 84.9686 18.7756C84.6959 19.624 85.1807 20.5329 86.0291 20.7955C86.0672 20.8074 86.1058 20.8193 86.1448 20.8313C86.2716 20.8704 86.4028 20.9108 86.5341 20.9571C87.2411 21.1894 88.0592 21.452 88.9278 21.6237V22.7751C88.9278 23.6639 89.655 24.3911 90.5437 24.3911C91.4325 24.3911 92.1597 23.6639 92.1597 22.7751V21.6843C92.7859 21.5732 93.4222 21.3712 94.008 21.0581C95.22 20.4016 96.2501 19.1695 96.1996 17.3313C96.1491 15.6951 95.1594 14.675 94.1292 14.0691C93.1798 13.5136 91.988 13.1702 91.0487 12.9076H91.0285C90.9742 12.8919 90.9205 12.8764 90.8674 12.8611C89.8962 12.5814 89.151 12.3667 88.6147 12.0794C88.1299 11.8168 88.1299 11.6653 88.1299 11.6249ZM22.3325 10.7932L11.7406 9.09259C10.6249 8.91345 9.57516 9.6727 9.39601 10.7884L4.11896 43.6547C3.93982 44.7704 4.69907 45.8201 5.81481 45.9993L16.4067 47.6999C17.5224 47.8791 18.5721 47.1198 18.7512 46.0041L24.0283 13.1378C24.2074 12.0221 23.4482 10.9724 22.3325 10.7932ZM26.1115 42.6818L23.2635 43.7143L27.3153 18.4787L27.3184 18.4771C27.6288 18.3111 28.0835 18.0791 28.6437 17.8255C29.7755 17.3132 31.2832 16.7377 32.8688 16.4206C35.9356 15.8074 41.4982 15.4891 45.6317 16.8669C49.9024 18.2905 53.4584 20.535 55.3244 21.7129L55.4172 21.7715C56.5021 22.456 57.5315 23.0411 58.9482 23.5045C60.3288 23.956 61.9941 24.2654 64.3516 24.5273C68.9398 25.0371 78.4735 26.5544 82.8568 28.0155C87.0601 29.4166 89.1505 31.6275 89.8942 33.563C90.1027 34.1056 90.3951 35.3455 90.366 36.4204C90.3528 36.904 90.2774 37.2034 90.2121 37.3544C90.1776 37.3541 90.1356 37.3533 90.0856 37.3516C89.8426 37.3437 89.508 37.3213 89.081 37.2825C88.2302 37.2051 87.0999 37.0712 85.773 36.8953C83.1242 36.5441 79.7699 36.036 76.4646 35.5129C73.1626 34.9902 69.9227 34.4545 67.5075 34.0494C66.3002 33.8468 65.2995 33.677 64.6009 33.5578C64.2516 33.4983 63.9778 33.4514 63.7916 33.4194L63.5073 33.3705C62.3938 33.1782 61.3349 33.925 61.1427 35.0385C60.9504 36.152 61.6972 37.2106 62.8107 37.4029L63.1589 35.3867C62.8107 37.4029 62.812 37.4031 62.812 37.4031L63.0991 37.4525C63.2868 37.4847 63.562 37.5319 63.9129 37.5917C64.6146 37.7114 65.619 37.8819 66.8305 38.0851C69.253 38.4915 72.5061 39.0294 75.8249 39.5547C79.1404 40.0795 82.5348 40.5939 85.2352 40.9519C86.5829 41.1306 87.7774 41.273 88.7106 41.3578C89.1756 41.4001 89.5978 41.4301 89.9525 41.4416C90.2476 41.4512 90.6816 41.4573 91.0664 41.3803C92.3954 41.1145 93.2998 40.2838 93.8165 39.2968C94.2914 38.3894 94.4337 37.3782 94.4566 36.5315C94.4604 36.3945 94.461 36.257 94.459 36.1194C98.8279 34.382 109.273 30.3861 109.897 30.1475L109.945 30.1294L110.35 29.9772C112.252 29.2621 113.473 28.8028 114.756 28.6589C116.012 28.5178 117.447 28.6798 119.661 29.6026C121.687 30.4465 122.783 31.1862 123.263 31.6942C123.167 31.7503 123.046 31.8145 122.876 31.9039C116.102 35.4582 105.937 40.7098 96.7666 45.2714C92.1804 47.5528 87.854 49.6561 84.33 51.2866C80.7472 52.9443 78.144 54.0416 76.9183 54.3918C71.7991 55.8545 66.6078 54.5471 64.9061 53.9341C55.8543 50.3473 38.6605 43.4151 35.8302 42.2021C32.1961 40.6446 28.7789 41.6179 26.1115 42.6818Z" fill="#99DDD8"/>
</svg>
