<svg width="119" height="65" viewBox="0 0 119 65" fill="none" xmlns="http://www.w3.org/2000/svg">
<path d="M49.2624 43.0486L49.2612 43.0482L49.2156 43.0311L49.2145 43.0307C49.1039 42.9897 48.9936 42.9485 48.8831 42.9073L48.8621 42.8994C47.7657 42.49 46.6469 42.0722 45.4469 41.9391C44.0282 41.7818 42.6045 42.0197 40.8576 42.7388C39.4203 43.3305 38.2153 44.0118 37.4711 44.8329C37.0852 45.2587 36.7292 45.826 36.6439 46.5263C36.553 47.2724 36.7972 47.9396 37.2001 48.4586C37.6409 49.0262 38.242 49.3346 38.5206 49.4777L38.5297 49.4823L38.5302 49.4826L38.5782 49.5073C38.5783 49.5073 38.5784 49.5074 38.5785 49.5074C42.8925 51.7442 49.3688 55.0502 55.218 57.9251C58.1418 59.3622 60.9178 60.6959 63.1925 61.7359C65.4194 62.754 67.2894 63.5489 68.3312 63.843C72.4462 65.0047 76.4523 63.9732 77.8079 63.4861L77.8252 63.4799L77.8253 63.48L77.8353 63.4761L77.8524 63.4694C77.8525 63.4694 77.8525 63.4694 77.8525 63.4694C83.5862 61.2246 94.5685 56.85 96.4134 56.0688C97.5926 55.5694 98.8021 55.8002 100.333 56.4052L100.471 56.0564L100.333 56.4052L100.353 56.413L100.353 56.4132L100.364 56.4173L103.631 57.5874C104.478 59.1063 106.222 60.0092 108.05 59.7192L114.778 58.652C117.105 58.2828 118.696 56.1169 118.32 53.8074L114.969 33.1819C114.594 30.8735 112.398 29.3099 110.072 29.6789L103.345 30.7462C101.263 31.0765 99.7708 32.8447 99.7481 34.8676C99.1326 34.6484 98.439 34.4423 97.7065 34.2975C95.4967 33.8609 91.3868 33.5818 88.0789 34.6713C85.021 35.6784 82.5108 37.2447 81.3087 37.9948L81.3044 37.9975L81.3044 37.9975L81.2177 38.0516C81.2176 38.0516 81.2176 38.0516 81.2176 38.0516C80.6184 38.4252 80.2017 38.6491 79.6372 38.8315C79.0431 39.0235 78.2173 39.1904 76.8006 39.346C73.8641 39.6684 67.5401 40.6454 64.4362 41.6677C61.3745 42.6761 59.2656 44.4073 58.2962 46.4951C55.1973 45.2919 49.6146 43.1818 49.2624 43.0486ZM56.7064 54.9527C50.9995 52.1477 44.6846 48.9264 40.3869 46.7C40.7449 46.4551 41.3069 46.147 42.1427 45.8029C43.5066 45.2414 44.3534 45.1566 45.0743 45.2366C45.8334 45.3208 46.5622 45.5891 47.7832 46.0428L47.7833 46.0428L48.0398 46.138L48.0406 46.1383L48.0688 46.1489C48.0691 46.149 48.0694 46.1491 48.0696 46.1492C48.4641 46.2982 54.7405 48.6707 57.6329 49.8021C57.633 49.8063 57.6331 49.8105 57.6332 49.8147C57.6486 50.375 57.7438 51.0744 58.0833 51.7154C58.4568 52.4204 59.119 53.0236 60.0886 53.2152C60.3791 53.2726 60.6929 53.2667 60.8808 53.2606C61.1162 53.2531 61.3923 53.2336 61.6911 53.2067C62.2913 53.1528 63.0557 53.0627 63.9136 52.9503C65.6333 52.725 67.7928 52.4017 69.8996 52.0722C72.0089 51.7423 74.0762 51.4045 75.6155 51.1494C76.3853 51.0218 77.0236 50.9147 77.4695 50.8396C77.6925 50.802 77.8675 50.7724 77.9868 50.7521L77.9869 50.7521L78.1693 50.7211L78.1078 50.3598C78.1079 50.3603 78.108 50.3607 78.1081 50.3612L78.1695 50.7211C79.0772 50.5662 79.6947 49.7106 79.5361 48.8029C79.3777 47.8967 78.5086 47.2963 77.6018 47.451L77.4216 47.4817C77.3034 47.5017 77.1297 47.5311 76.9079 47.5685C76.4645 47.6432 75.8293 47.7497 75.0629 47.8768C73.5295 48.1309 71.4731 48.4669 69.3773 48.7947C67.279 49.1228 65.1523 49.4411 63.4746 49.6609C62.6337 49.7711 61.9216 49.8544 61.3888 49.9022C61.2378 49.9158 61.1068 49.9259 60.9955 49.9331C60.9887 49.875 60.9833 49.8058 60.981 49.7244C60.9641 49.1071 61.1382 48.3787 61.2553 48.0774C61.6757 46.9964 62.8958 45.6717 65.4927 44.8163C68.2367 43.9126 74.2582 42.9635 77.1695 42.6439C78.6769 42.4784 79.7635 42.2808 80.6757 41.986C81.6175 41.6817 82.301 41.2965 83.0014 40.8598L83.0015 40.8598L83.0604 40.8231L82.862 40.5049L83.0604 40.823C84.2451 40.0842 86.47 38.6978 89.1354 37.8199C91.6754 36.9833 95.1364 37.1732 97.0514 37.5515C98.0214 37.7432 98.9508 38.0929 99.6545 38.4077C99.9134 38.5235 100.136 38.6318 100.311 38.7213L102.753 53.7446L101.548 53.3131C99.8329 52.6377 97.5443 51.9814 95.0971 53.0177C93.3057 53.7763 82.3971 58.1222 76.6452 60.3743C75.595 60.7468 72.3896 61.5385 69.249 60.6519C68.5036 60.4415 66.8775 59.7663 64.5957 58.7231C62.3621 57.7019 59.6179 56.3837 56.7064 54.9527ZM103.875 34.0225L110.602 32.9553C111.111 32.8746 111.582 33.2169 111.662 33.7093L115.014 54.3348C115.094 54.826 114.756 55.2951 114.248 55.3756L107.521 56.4429C107.012 56.5236 106.541 56.1812 106.461 55.6889L103.109 35.0634C103.029 34.5721 103.367 34.103 103.875 34.0225Z" fill="#99DDD8" stroke="#99DDD8" stroke-width="0.75" stroke-linejoin="round"/>
<path d="M69.7376 21.9514L69.7388 21.9518L69.7844 21.9689L69.7855 21.9693C69.8955 22.0101 70.0052 22.051 70.1151 22.0921L70.1169 22.0927L70.138 22.1006C71.2343 22.51 72.3531 22.9278 73.5531 23.0609C74.9718 23.2182 76.3955 22.9803 78.1424 22.2612C79.5797 21.6695 80.7847 20.9882 81.5289 20.1671C81.9148 19.7413 82.2708 19.174 82.3561 18.4737C82.4469 17.7276 82.2028 17.0604 81.7998 16.5414C81.3591 15.9738 80.758 15.6654 80.4794 15.5223L80.4702 15.5176L80.4698 15.5174L80.4218 15.4927C80.4217 15.4927 80.4216 15.4926 80.4215 15.4926C76.1075 13.2558 69.6312 9.94983 63.782 7.0749C60.8582 5.63785 58.0822 4.30409 55.8075 3.26413C53.5806 2.24605 51.7106 1.45114 50.6688 1.15701C46.5537 -0.00469434 42.5477 1.02684 41.1921 1.51391L41.1747 1.52015L41.1747 1.52L41.1647 1.5239L41.1476 1.53061C41.1475 1.53062 41.1475 1.53063 41.1475 1.53064C35.4139 3.77539 24.4315 8.14998 22.5866 8.93121C21.4073 9.43059 20.1978 9.19981 18.6671 8.59482L18.6671 8.59481L18.6474 8.58701L18.6475 8.58683L18.636 8.58273L15.3694 7.41264C14.5225 5.89371 12.7775 4.99076 10.9495 5.28077L4.22235 6.34803C1.89537 6.7172 0.304446 8.88311 0.679737 11.1926L4.03133 31.8181C4.40644 34.1265 6.60162 35.6901 8.92755 35.3211L15.6547 34.2538C17.7366 33.9235 19.2292 32.1553 19.2519 30.1324C19.8674 30.3516 20.561 30.5577 21.2935 30.7025C23.5033 31.1391 27.6132 31.4182 30.9211 30.3287C33.979 29.3216 36.4892 27.7553 37.6913 27.0052L37.6956 27.0025L37.6956 27.0025L37.7823 26.9484C37.7823 26.9484 37.7824 26.9484 37.7824 26.9484C38.3816 26.5748 38.7983 26.3509 39.3628 26.1685C39.9569 25.9765 40.7827 25.8096 42.1994 25.654C45.1359 25.3316 51.4599 24.3546 54.5638 23.3323C57.6255 22.3239 59.7344 20.5927 60.7038 18.5049C63.8027 19.7081 69.3854 21.8182 69.7376 21.9514ZM62.2936 10.0473C68.0005 12.8523 74.3154 16.0736 78.6131 18.3C78.2551 18.5449 77.6931 18.853 76.8573 19.1971C75.4934 19.7586 74.6466 19.8434 73.9257 19.7634C73.1666 19.6792 72.4378 19.4109 71.2168 18.9572L71.2167 18.9572L70.9602 18.862L70.9594 18.8617L70.9312 18.8512C70.9309 18.8511 70.9307 18.851 70.9304 18.8509C70.5361 18.7019 64.2596 16.3293 61.3671 15.1979C61.367 15.1937 61.3669 15.1895 61.3668 15.1853C61.3514 14.625 61.2562 13.9256 60.9167 13.2846C60.5432 12.5796 59.881 11.9764 58.9114 11.7848C58.6209 11.7274 58.3071 11.7333 58.1192 11.7394C57.8838 11.7469 57.6077 11.7664 57.3089 11.7933C56.7087 11.8472 55.9443 11.9373 55.0864 12.0497C53.3667 12.275 51.2072 12.5983 49.1004 12.9278C46.9911 13.2577 44.9238 13.5955 43.3845 13.8506C42.6147 13.9782 41.9764 14.0853 41.5304 14.1604C41.3074 14.198 41.1325 14.2276 41.0132 14.2479L41.0131 14.2479L40.8307 14.2789L40.8926 14.6428C40.8925 14.6423 40.8924 14.6419 40.8923 14.6414L40.8305 14.2789C39.9228 14.4338 39.3053 15.2894 39.4639 16.1971C39.6223 17.1032 40.4913 17.7036 41.398 17.549C41.3981 17.549 41.3982 17.549 41.3982 17.549L41.5784 17.5183C41.6966 17.4983 41.8703 17.4689 42.092 17.4315C42.5355 17.3568 43.1707 17.2503 43.9371 17.1232C45.4704 16.8691 47.5269 16.5331 49.6227 16.2053C51.7209 15.8772 53.8477 15.5589 55.5254 15.3391C56.3663 15.229 57.0784 15.1456 57.6112 15.0978C57.7622 15.0842 57.8931 15.0741 58.0045 15.0669C58.0113 15.125 58.0167 15.1942 58.019 15.2756C58.0359 15.8929 57.8618 16.6213 57.7447 16.9226C57.3243 18.0036 56.1042 19.3283 53.5073 20.1837C50.7633 21.0874 44.7418 22.0365 41.8305 22.3561C40.3231 22.5216 39.2365 22.7192 38.3243 23.014C37.3825 23.3183 36.699 23.7035 35.9986 24.1402L35.9985 24.1402L35.9396 24.1769L36.138 24.4951L35.9395 24.177C34.7549 24.9158 32.53 26.3022 29.8646 27.1801C27.3246 28.0167 23.8636 27.8268 21.9485 27.4485C20.9786 27.2568 20.0492 26.9071 19.3455 26.5923C19.0865 26.4765 18.8642 26.3682 18.6886 26.2787L16.2474 11.2554L17.4521 11.6869C19.1671 12.3623 21.4557 13.0186 23.9029 11.9823C25.6943 11.2237 36.6029 6.87784 42.3547 4.62575C43.4049 4.25318 46.6104 3.46144 49.751 4.34807C50.4964 4.55852 52.1225 5.23375 54.4043 6.27691C56.6379 7.29807 59.3821 8.61629 62.2936 10.0473ZM15.1252 30.9775L8.398 32.0447C7.88941 32.1254 7.41781 31.7831 7.3378 31.2907L3.98621 10.6652C3.90638 10.174 4.24435 9.70488 4.75189 9.62436L11.4791 8.55711C11.9877 8.47642 12.4593 8.81877 12.5393 9.31113L15.8909 29.9366C15.9707 30.4279 15.6327 30.897 15.1252 30.9775Z" fill="#99DDD8" stroke="#99DDD8" stroke-width="0.75" stroke-linejoin="round"/>
<path d="M62.9663 43.9325C65.3443 43.9325 67.6249 42.9879 69.3064 41.3064C70.9879 39.6249 71.9325 37.3443 71.9325 34.9663C71.9325 32.5883 70.9879 30.3077 69.3064 28.6262C67.6249 26.9447 65.3443 26 62.9663 26C60.5883 26 58.3077 26.9447 56.6262 28.6262C54.9447 30.3077 54 32.5883 54 34.9663C54 37.3443 54.9447 39.6249 56.6262 41.3064C58.3077 42.9879 60.5883 43.9325 62.9663 43.9325ZM61.4781 33.1606V33.1668C61.4781 33.1917 61.4781 33.2851 61.777 33.447C62.1257 33.6338 62.6176 33.7708 63.2651 33.9576H63.2776C63.8567 34.1195 64.5914 34.3312 65.1767 34.6736C65.8118 35.0472 66.422 35.6761 66.4532 36.6848C66.4843 37.818 65.8492 38.5777 65.102 38.9824C64.7408 39.1754 64.3486 39.3 63.9625 39.3685V40.0409C63.9625 40.5889 63.5142 41.0372 62.9663 41.0372C62.4183 41.0372 61.97 40.5889 61.97 40.0409V39.3311C61.4345 39.2253 60.9302 39.0634 60.4943 38.9202C60.3885 38.8828 60.2826 38.8517 60.183 38.8205C59.66 38.6586 59.3611 38.0982 59.5292 37.5752C59.6973 37.0522 60.2515 36.7533 60.7745 36.9214C60.899 36.9588 61.0174 36.9961 61.1357 37.0335C61.8455 37.2577 62.4059 37.4382 62.9974 37.4569C63.4146 37.4694 63.8567 37.3884 64.1493 37.2327C64.2863 37.158 64.361 37.0833 64.3984 37.0273C64.4295 36.9775 64.4669 36.8965 64.4607 36.7471C64.4607 36.6599 64.4482 36.5603 64.168 36.3984C63.838 36.2054 63.3648 36.0622 62.7234 35.8816L62.6114 35.8504C62.0572 35.6948 61.3785 35.5018 60.8306 35.2091C60.2141 34.8791 59.5479 34.2938 59.4856 33.2976C59.4109 32.127 60.1083 31.3735 60.843 30.9813C61.1979 30.7882 61.5902 30.6637 61.9638 30.589V29.985C61.9638 29.4371 62.4121 28.9888 62.96 28.9888C63.508 28.9888 63.9563 29.4371 63.9563 29.985V30.5703C64.3486 30.6263 64.7222 30.7135 65.0709 30.8007C65.6063 30.9315 65.9301 31.4732 65.7994 32.0086C65.6686 32.5441 65.1269 32.8679 64.5914 32.7372C64.0123 32.5939 63.4582 32.4881 62.9476 32.4819C62.5615 32.4756 62.1008 32.5628 61.7832 32.7309C61.6338 32.8119 61.5591 32.8866 61.5217 32.9426C61.4968 32.9862 61.4657 33.0423 61.4719 33.1668L61.4781 33.1606Z" fill="#99DDD8"/>
</svg>
