<svg width="58" height="58" viewBox="0 0 58 58" fill="none" xmlns="http://www.w3.org/2000/svg">
<g clip-path="url(#clip0_6067_182383)">
<path d="M18.125 9.0625C18.125 9.33438 18.2723 9.83281 19.0652 10.5125C19.2238 10.6484 19.3937 10.7844 19.5863 10.9203C17.8418 10.9883 16.1426 11.1355 14.5 11.3621V9.0625C14.5 7.3293 15.4742 5.92461 16.6977 4.87109C17.9324 3.80625 19.609 2.93398 21.5348 2.24297C25.3863 0.826953 30.5859 0 36.25 0C41.9141 0 47.1137 0.826953 50.9652 2.23164C52.8797 2.93398 54.5676 3.80625 55.8023 4.85977C57.0258 5.92461 58 7.3293 58 9.0625V20.8438V33.7465C58 35.491 57.0711 36.941 55.8363 38.0512C54.6016 39.1613 52.925 40.0789 50.9992 40.8152C49.8211 41.257 48.5297 41.6535 47.1363 41.982V38.2438C48.0652 37.9945 48.9262 37.7227 49.7191 37.4281C51.407 36.7824 52.6418 36.0688 53.4234 35.3664C54.2051 34.6641 54.3863 34.109 54.3863 33.7578V26.2473C53.4008 26.8816 52.2566 27.4367 50.9992 27.9125C49.8211 28.3543 48.5297 28.7508 47.1363 29.0793V25.341C48.0652 25.0918 48.9262 24.8199 49.7191 24.5254C51.407 23.8797 52.6418 23.166 53.4234 22.4637C54.2051 21.7613 54.3863 21.2063 54.3863 20.8551V14.2848C53.3895 14.8965 52.234 15.4289 50.9766 15.882C49.0168 16.5957 46.7172 17.1621 44.1797 17.5359C43.9645 17.3207 43.7492 17.1055 43.534 16.9129C42.3898 15.882 41.0758 15.0551 39.7051 14.3641C43.6473 14.1035 47.1137 13.4125 49.7305 12.4609C51.4184 11.8492 52.6531 11.1582 53.4461 10.4898C54.2391 9.81016 54.3863 9.31172 54.3863 9.03984C54.3863 8.76797 54.2391 8.26953 53.4461 7.58984C52.6645 6.92148 51.4297 6.23047 49.7305 5.61875C46.366 4.41797 41.5969 3.625 36.25 3.625C30.9031 3.625 26.134 4.41797 22.7695 5.64141C21.0816 6.25312 19.8469 6.94414 19.0539 7.6125C18.2609 8.29219 18.1137 8.79062 18.1137 9.0625H18.125ZM3.625 23.5625C3.625 23.8344 3.77227 24.3328 4.56523 25.0125C5.34687 25.6809 6.58164 26.3719 8.28086 26.9836C11.634 28.207 16.4031 29 21.75 29C27.0969 29 31.866 28.207 35.2305 26.9836C36.9184 26.3719 38.1531 25.6809 38.9461 25.0125C39.7391 24.3328 39.8863 23.8344 39.8863 23.5625C39.8863 23.2906 39.7391 22.7922 38.9461 22.1125C38.1645 21.4441 36.9297 20.7531 35.2305 20.1414C31.866 18.918 27.0969 18.125 21.75 18.125C16.4031 18.125 11.634 18.918 8.26953 20.1414C6.58164 20.7531 5.34688 21.4441 4.55391 22.1125C3.76094 22.7922 3.61367 23.2906 3.61367 23.5625H3.625ZM0 23.5625C0 21.8293 0.974219 20.4246 2.19766 19.3711C3.43242 18.3063 5.10898 17.434 7.03477 16.743C10.8863 15.327 16.0859 14.5 21.75 14.5C27.4141 14.5 32.6137 15.327 36.4652 16.7316C38.3797 17.434 40.0676 18.3062 41.3023 19.3598C42.5371 20.4133 43.5 21.8293 43.5 23.5512V35.3324V48.2352C43.5 49.9797 42.5711 51.4297 41.3363 52.5398C40.1016 53.65 38.425 54.5676 36.4992 55.3039C32.6363 56.7879 27.4141 57.6602 21.75 57.6602C16.0859 57.6602 10.8637 56.7879 7.01211 55.3152C5.08633 54.5789 3.40977 53.6613 2.175 52.5512C0.940235 51.441 0 49.991 0 48.2465V35.3438V23.5625ZM39.875 28.7848C38.8781 29.3965 37.7227 29.9289 36.4652 30.382C32.6137 31.798 27.4141 32.625 21.75 32.625C16.0859 32.625 10.8863 31.798 7.03477 30.3934C5.77734 29.9402 4.62188 29.4078 3.625 28.7961V35.3438C3.625 35.6949 3.80625 36.25 4.58789 36.9523C5.36953 37.6547 6.6043 38.3797 8.29219 39.0141C11.6566 40.2941 16.4031 41.1211 21.75 41.1211C27.0969 41.1211 31.8434 40.2941 35.2078 39.0141C36.8957 38.3684 38.1305 37.6547 38.9121 36.9523C39.6938 36.25 39.875 35.6949 39.875 35.3438V28.7848ZM3.625 48.2465C3.625 48.5977 3.80625 49.1527 4.58789 49.8551C5.36953 50.5574 6.6043 51.2824 8.29219 51.9168C11.6566 53.1969 16.4031 54.0352 21.75 54.0352C27.0969 54.0352 31.8434 53.2082 35.2078 51.9281C36.8957 51.2824 38.1305 50.5688 38.9121 49.8664C39.6938 49.1641 39.875 48.609 39.875 48.2578V40.7473C38.8895 41.3816 37.7453 41.9367 36.4879 42.4125C32.6363 43.8852 27.4141 44.7461 21.75 44.7461C16.0859 44.7461 10.8637 43.8738 7.01211 42.4012C5.76602 41.9254 4.62188 41.3703 3.625 40.7359V48.2352V48.2465Z" fill="#99DDD8"/>
</g>
<defs>
<clipPath id="clip0_6067_182383">
<rect width="58" height="58" fill="white"/>
</clipPath>
</defs>
</svg>
