<svg width="60" height="60" viewBox="0 0 60 60" fill="none" xmlns="http://www.w3.org/2000/svg">
<g clip-path="url(#clip0_6067_182401)">
<path d="M30 56.25C44.4961 56.25 56.25 44.4961 56.25 30C56.25 15.5039 44.4961 3.75 30 3.75C15.5039 3.75 3.75 15.5039 3.75 30C3.75 31.2187 3.83203 32.4141 3.99609 33.5859L2.87109 33.9961C1.95703 34.3359 1.14844 34.8984 0.539062 35.625C0.175781 33.8086 0 31.9219 0 30C0 13.4297 13.4297 0 30 0C46.5703 0 60 13.4297 60 30C60 46.5703 46.5703 60 30 60C28.0781 60 26.1914 59.8242 24.3633 59.4727C25.0898 58.8516 25.6523 58.0547 25.9922 57.1406L26.4023 56.0156C27.5742 56.1797 28.7695 56.2617 29.9883 56.2617L30 56.25ZM29.0977 48.7266L30.4688 44.9883C38.5313 44.7422 45 38.1211 45 30C45 21.7148 38.2852 15 30 15C21.8789 15 15.2578 21.457 15.0117 29.5312L11.2734 30.9023C11.2617 30.5977 11.25 30.3047 11.25 30C11.25 19.6406 19.6406 11.25 30 11.25C40.3594 11.25 48.75 19.6406 48.75 30C48.75 40.3594 40.3594 48.75 30 48.75C29.6953 48.75 29.3906 48.7383 29.0977 48.7266ZM31.7578 30.6445L22.4766 55.8398C22.207 56.5664 21.5273 57.0469 20.7539 57.0703C19.9805 57.0938 19.2773 56.625 18.9844 55.9102L15.4102 47.2383L3.19922 59.4492C2.47266 60.1758 1.27734 60.1758 0.550781 59.4492C-0.175781 58.7227 -0.175781 57.5273 0.550781 56.8008L12.7617 44.5898L4.08984 41.0156C3.375 40.7227 2.91797 40.0195 2.92969 39.2461C2.94141 38.4727 3.43359 37.793 4.16016 37.5234L29.3555 28.2422C30.0469 27.9844 30.8086 28.1602 31.3242 28.6758C31.8398 29.1914 32.0156 29.9648 31.7578 30.6445ZM16.793 42.1875C17.25 42.375 17.625 42.75 17.8125 43.207L20.625 50.0273L26.8359 33.1641L9.97266 39.375L16.793 42.1875Z" fill="#99DDD8"/>
</g>
<defs>
<clipPath id="clip0_6067_182401">
<rect width="60" height="60" fill="white"/>
</clipPath>
</defs>
</svg>
