<svg width="80" height="65" viewBox="0 0 80 65" fill="none" xmlns="http://www.w3.org/2000/svg">
<path d="M25.5768 62.9688C24.0312 62.9688 22.5354 62.3848 21.3762 61.3438L6.14464 47.5566C4.77354 46.3125 3.98828 44.5225 3.98828 42.6562C3.98828 40.79 4.77354 39 6.14464 37.7559L21.3762 23.9688C22.5354 22.915 24.0312 22.3438 25.5768 22.3438C29.0668 22.3438 31.9087 25.2256 31.9087 28.793V30.4688H35.8974H43.8746H47.8633H49.8576C50.9545 30.4688 51.8519 31.3828 51.8519 32.5V34.5312V36.207C51.8519 37.5273 52.8989 38.5938 54.1952 38.5938C54.7686 38.5938 55.317 38.3779 55.7533 37.9971L70.9724 24.21C71.496 23.7402 71.7951 23.0547 71.7951 22.3438C71.7951 21.6328 71.496 20.96 70.9724 20.4775L55.7533 6.69043C55.3295 6.29688 54.7686 6.09375 54.1952 6.09375C52.8989 6.09375 51.8519 7.16016 51.8519 8.48047V10.1562V12.1875C51.8519 13.3047 50.9545 14.2188 49.8576 14.2188H47.8633H35.8974C34.8005 14.2188 33.9031 13.3047 33.9031 12.1875C33.9031 11.0703 34.8005 10.1562 35.8974 10.1562H47.8633V8.48047C47.8633 4.92578 50.6927 2.03125 54.1952 2.03125C55.7408 2.03125 57.2366 2.61523 58.3958 3.65625L73.6274 17.4434C74.9985 18.6875 75.7837 20.4648 75.7837 22.3438C75.7837 24.2227 74.9985 26 73.6274 27.2441L58.3958 41.0313C57.2366 42.085 55.7408 42.6562 54.1952 42.6562C50.7052 42.6562 47.8633 39.7744 47.8633 36.207V34.5312H43.8746H35.8974H31.9087H29.9144C28.8175 34.5312 27.9201 33.6172 27.9201 32.5V30.4688V28.793C27.9201 27.4727 26.8731 26.4062 25.5768 26.4062C25.0034 26.4062 24.455 26.6221 24.0187 27.0029L8.79957 40.79C8.27607 41.2598 7.97692 41.9453 7.97692 42.6562C7.97692 43.3672 8.27607 44.04 8.79957 44.5225L24.0187 58.3096C24.4425 58.7031 25.0034 58.9062 25.5768 58.9062C26.8731 58.9062 27.9201 57.8398 27.9201 56.5195V54.8438V52.8125C27.9201 51.6953 28.8175 50.7812 29.9144 50.7812H31.9087H43.8746C44.9715 50.7812 45.869 51.6953 45.869 52.8125C45.869 53.9297 44.9715 54.8438 43.8746 54.8438H31.9087V56.5195C31.9087 60.0742 29.0793 62.9688 25.5768 62.9688Z" fill="#99DDD8"/>
</svg>
