<svg width="64" height="37" viewBox="0 0 64 37" fill="none" xmlns="http://www.w3.org/2000/svg">
<path fill-rule="evenodd" clip-rule="evenodd" d="M3.52891 5.26876C3.52891 3.81162 4.70615 2.63438 6.16329 2.63438H43.0446C44.5018 2.63438 45.679 3.81162 45.679 5.26876H3.52891ZM0.894531 5.26876V6.58595V31.6126C0.894531 34.5186 3.25724 36.8813 6.16329 36.8813H43.0446C43.2047 36.8813 43.3632 36.8742 43.5197 36.8601C42.3903 36.1343 41.3702 35.2532 40.4895 34.247H6.16329C4.70615 34.247 3.52891 33.0697 3.52891 31.6126V7.90314H45.679V11.7459C46.5191 11.3916 47.4003 11.1156 48.3134 10.927V6.58595V5.26876C48.3134 2.36271 45.9507 0 43.0446 0H6.16329C3.25724 0 0.894531 2.36271 0.894531 5.26876ZM41.7082 14.2648C41.6009 13.6462 41.0583 13.1719 40.4103 13.1719H29.8727C29.1483 13.1719 28.5555 13.7646 28.5555 14.4891C28.5555 15.2135 29.1483 15.8063 29.8727 15.8063H40.2271C40.6818 15.2562 41.177 14.7408 41.7082 14.2648ZM38.5005 18.4407H29.8727C29.1483 18.4407 28.5555 19.0334 28.5555 19.7579C28.5555 20.4823 29.1483 21.075 29.8727 21.075H37.4805C37.7341 20.1563 38.0774 19.2749 38.5005 18.4407ZM37.0154 23.7094H29.8727C29.1483 23.7094 28.5555 24.3022 28.5555 25.0266C28.5555 25.7511 29.1483 26.3438 29.8727 26.3438H37.0437C36.9941 25.8601 36.9686 25.3692 36.9686 24.8724C36.9686 24.4809 36.9844 24.093 37.0154 23.7094ZM18.5636 17.6691C18.0696 18.1631 17.3995 18.4407 16.7008 18.4407C16.0021 18.4407 15.3321 18.1631 14.838 17.6691C14.344 17.175 14.0664 16.505 14.0664 15.8063C14.0664 15.1076 14.344 14.4375 14.838 13.9435C15.3321 13.4495 16.0021 13.1719 16.7008 13.1719C17.3995 13.1719 18.0696 13.4495 18.5636 13.9435C19.0576 14.4375 19.3352 15.1076 19.3352 15.8063C19.3352 16.505 19.0576 17.175 18.5636 17.6691ZM20.4264 12.0807C19.4383 11.0926 18.0982 10.5375 16.7008 10.5375C15.3035 10.5375 13.9633 11.0926 12.9752 12.0807C11.9872 13.0688 11.4321 14.4089 11.4321 15.8063C11.4321 17.2036 11.9872 18.5438 12.9752 19.5319C13.9633 20.5199 15.3035 21.075 16.7008 21.075C18.0982 21.075 19.4383 20.5199 20.4264 19.5319C21.4145 18.5438 21.9696 17.2036 21.9696 15.8063C21.9696 14.4089 21.4145 13.0688 20.4264 12.0807ZM10.1149 30.2954C10.1149 28.1138 11.8848 26.3438 14.0664 26.3438H19.3352C21.5168 26.3438 23.2868 28.1138 23.2868 30.2954C23.2868 31.0198 23.8795 31.6126 24.604 31.6126C25.3284 31.6126 25.9212 31.0198 25.9212 30.2954C25.9212 26.6566 22.9739 23.7094 19.3352 23.7094H14.0664C10.4277 23.7094 7.48048 26.6566 7.48048 30.2954C7.48048 31.0198 8.07322 31.6126 8.79768 31.6126C9.52213 31.6126 10.1149 31.0198 10.1149 30.2954Z" fill="#99DDD8"/>
<path d="M51.6055 34.3333C53.9777 34.3333 56.2527 33.35 57.9301 31.5997C59.6076 29.8493 60.5499 27.4754 60.5499 25C60.5499 22.5246 59.6076 20.1507 57.9301 18.4003C56.2527 16.65 53.9777 15.6667 51.6055 15.6667C49.2333 15.6667 46.9582 16.65 45.2808 18.4003C43.6034 20.1507 42.661 22.5246 42.661 25C42.661 27.4754 43.6034 29.8493 45.2808 31.5997C46.9582 33.35 49.2333 34.3333 51.6055 34.3333ZM51.6055 13C54.6555 13 57.5805 14.2643 59.7372 16.5147C61.8939 18.7652 63.1055 21.8174 63.1055 25C63.1055 28.1826 61.8939 31.2348 59.7372 33.4853C57.5805 35.7357 54.6555 37 51.6055 37C48.5555 37 45.6304 35.7357 43.4737 33.4853C41.3171 31.2348 40.1055 28.1826 40.1055 25C40.1055 21.8174 41.3171 18.7652 43.4737 16.5147C45.6304 14.2643 48.5555 13 51.6055 13ZM51.6055 18.3333C52.3082 18.3333 52.8832 18.9333 52.8832 19.6667V23.6667H55.4388C56.1416 23.6667 56.7166 24.2667 56.7166 25C56.7166 25.7333 56.1416 26.3333 55.4388 26.3333H51.6055C50.9027 26.3333 50.3277 25.7333 50.3277 25V19.6667C50.3277 18.9333 50.9027 18.3333 51.6055 18.3333Z" fill="#99DDD8"/>
<path d="M51.6055 34.3333C53.9777 34.3333 56.2527 33.35 57.9301 31.5997C59.6076 29.8493 60.5499 27.4754 60.5499 25C60.5499 22.5246 59.6076 20.1507 57.9301 18.4003C56.2527 16.65 53.9777 15.6667 51.6055 15.6667C49.2333 15.6667 46.9582 16.65 45.2808 18.4003C43.6034 20.1507 42.661 22.5246 42.661 25C42.661 27.4754 43.6034 29.8493 45.2808 31.5997C46.9582 33.35 49.2333 34.3333 51.6055 34.3333ZM51.6055 13C54.6555 13 57.5805 14.2643 59.7372 16.5147C61.8939 18.7652 63.1055 21.8174 63.1055 25C63.1055 28.1826 61.8939 31.2348 59.7372 33.4853C57.5805 35.7357 54.6555 37 51.6055 37C48.5555 37 45.6304 35.7357 43.4737 33.4853C41.3171 31.2348 40.1055 28.1826 40.1055 25C40.1055 21.8174 41.3171 18.7652 43.4737 16.5147C45.6304 14.2643 48.5555 13 51.6055 13ZM51.6055 18.3333C52.3082 18.3333 52.8832 18.9333 52.8832 19.6667V23.6667H55.4388C56.1416 23.6667 56.7166 24.2667 56.7166 25C56.7166 25.7333 56.1416 26.3333 55.4388 26.3333H51.6055C50.9027 26.3333 50.3277 25.7333 50.3277 25V19.6667C50.3277 18.9333 50.9027 18.3333 51.6055 18.3333Z" stroke="#99DDD8"/>
</svg>
