<svg width="60" height="41" viewBox="0 0 60 41" fill="none" xmlns="http://www.w3.org/2000/svg">
<path d="M38.7761 29.0694C38.7761 26.7115 39.709 24.4501 41.3696 22.7828C43.0302 21.1155 45.2825 20.1788 47.6309 20.1788C49.9794 20.1788 52.2317 21.1155 53.8923 22.7828C55.5529 24.4501 56.4858 26.7115 56.4858 29.0694C56.4858 31.4274 55.5529 33.6887 53.8923 35.356C52.2317 37.0233 49.9794 37.96 47.6309 37.96C45.2825 37.96 43.0302 37.0233 41.3696 35.356C39.709 33.6887 38.7761 31.4274 38.7761 29.0694ZM59.0158 29.0694C59.0158 26.0378 57.8163 23.1303 55.6812 20.9867C53.5462 18.843 50.6504 17.6387 47.6309 17.6387C44.6115 17.6387 41.7157 18.843 39.5806 20.9867C37.4456 23.1303 36.2461 26.0378 36.2461 29.0694C36.2461 32.1011 37.4456 35.0085 39.5806 37.1522C41.7157 39.2959 44.6115 40.5002 47.6309 40.5002C50.6504 40.5002 53.5462 39.2959 55.6812 37.1522C57.8163 35.0085 59.0158 32.1011 59.0158 29.0694Z" fill="#99DDD8"/>
<path d="M36.5373 1.77008C36.5373 1.07154 37.1066 0.5 37.8023 0.5H46.6572C47.353 0.5 47.9222 1.07154 47.9222 1.77008V10.6607C47.9222 11.3592 47.353 11.9308 46.6572 11.9308C45.9615 11.9308 45.3922 11.3592 45.3922 10.6607V4.75478L32.3313 16.6777C31.8727 17.0905 31.1849 17.1222 30.7026 16.7412L16.6411 7.45868L3.50113 17.0637C2.93189 17.4765 2.14128 17.3574 1.73016 16.7859C1.31904 16.2143 1.44553 15.4205 2.00687 15.0077L15.9217 4.84707C16.3723 4.51368 16.9969 4.52161 17.4397 4.87089L31.4142 14.082L43.5106 3.04017H37.8023C37.1066 3.04017 36.5373 2.46863 36.5373 1.77008Z" fill="#99DDD8"/>
<path d="M6.79497 35.8092V30.0026C6.79497 29.2041 6.14172 28.5509 5.3433 28.5509C4.54488 28.5509 3.89163 29.2041 3.89163 30.0026V35.8092C3.89163 36.6077 4.54488 37.2609 5.3433 37.2609C6.14172 37.2609 6.79497 36.6077 6.79497 35.8092ZM5.3433 25.6475C7.74763 25.6475 9.69832 27.5982 9.69832 30.0026V35.8092C9.69832 38.2136 7.74763 40.1643 5.3433 40.1643C2.93897 40.1643 0.988281 38.2136 0.988281 35.8092V30.0026C0.988281 27.5982 2.93897 25.6475 5.3433 25.6475ZM18.4084 21.2925C18.4084 20.4941 17.7551 19.8408 16.9567 19.8408C16.1583 19.8408 15.505 20.4941 15.505 21.2925V35.8092C15.505 36.6077 16.1583 37.2609 16.9567 37.2609C17.7551 37.2609 18.4084 36.6077 18.4084 35.8092V21.2925ZM12.6017 21.2925C12.6017 18.8882 14.5523 16.9375 16.9567 16.9375C19.361 16.9375 21.3117 18.8882 21.3117 21.2925V35.8092C21.3117 38.2136 19.361 40.1643 16.9567 40.1643C14.5523 40.1643 12.6017 38.2136 12.6017 35.8092V21.2925ZM30.0217 35.8092V27.0992C30.0217 26.3008 29.3685 25.6475 28.5701 25.6475C27.7716 25.6475 27.1184 26.3008 27.1184 27.0992V35.8092C27.1184 36.6077 27.7716 37.2609 28.5701 37.2609C29.3685 37.2609 30.0217 36.6077 30.0217 35.8092ZM28.5701 22.7442C30.9744 22.7442 32.9251 24.6949 32.9251 27.0992V35.8092C32.9251 38.2136 30.9744 40.1643 28.5701 40.1643C26.1657 40.1643 24.215 38.2136 24.215 35.8092V27.0992C24.215 24.6949 26.1657 22.7442 28.5701 22.7442Z" fill="#99DDD8"/>
<path d="M51.7858 25.7633L51.7859 25.7633C52.1354 25.3941 52.1372 24.8018 51.7846 24.4333C51.4271 24.0597 50.8357 24.0508 50.4748 24.4353C50.4746 24.4355 50.4744 24.4358 50.4741 24.436L42.901 32.4308L42.9009 32.4309C42.5514 32.8001 42.5496 33.3924 42.9022 33.7609C43.2597 34.1345 43.8511 34.1434 44.212 33.7589C44.2123 33.7587 44.2125 33.7584 44.2127 33.7582L51.7858 25.7633ZM45.8004 25.8976C45.8004 25.6967 45.763 25.4973 45.6898 25.3107C45.6166 25.1241 45.5089 24.9533 45.3719 24.8086C45.2349 24.6638 45.0711 24.5479 44.8895 24.4685C44.7079 24.389 44.5125 24.3478 44.3146 24.3478C44.1167 24.3478 43.9213 24.389 43.7396 24.4685C43.558 24.5479 43.3943 24.6638 43.2573 24.8086C43.1203 24.9533 43.0126 25.1241 42.9394 25.3107C42.8662 25.4973 42.8288 25.6967 42.8288 25.8976C42.8288 26.0985 42.8662 26.2979 42.9394 26.4845C43.0126 26.6711 43.1203 26.8419 43.2573 26.9866C43.3943 27.1314 43.558 27.2473 43.7396 27.3267C43.9213 27.4062 44.1167 27.4474 44.3146 27.4474C44.5125 27.4474 44.7079 27.4062 44.8895 27.3267C45.0711 27.2473 45.2349 27.1314 45.3719 26.9866C45.5089 26.8419 45.6166 26.6711 45.6898 26.4845C45.763 26.2979 45.8004 26.0985 45.8004 25.8976ZM51.8581 32.2966C51.8581 31.8916 51.7059 31.4995 51.4296 31.2076C51.1526 30.915 50.7727 30.7468 50.3723 30.7468C49.9718 30.7468 49.5919 30.915 49.315 31.2076C49.0386 31.4995 48.8865 31.8916 48.8865 32.2966C48.8865 32.7016 49.0386 33.0937 49.315 33.3856C49.5919 33.6782 49.9718 33.8464 50.3723 33.8464C50.7727 33.8464 51.1526 33.6782 51.4296 33.3856C51.7059 33.0937 51.8581 32.7016 51.8581 32.2966Z" fill="#99DDD8" stroke="#99DDD8" stroke-width="0.7"/>
</svg>
