<svg width="46" height="41" viewBox="0 0 46 41" fill="none" xmlns="http://www.w3.org/2000/svg">
<g clip-path="url(#clip0_6110_182800)">
<path d="M10.4146 1.75C10.4146 1.0625 9.84833 0.5 9.15622 0.5C8.46412 0.5 7.89786 1.0625 7.89786 1.75V5.5H5.38112C2.60485 5.5 0.347656 7.74219 0.347656 10.5V13V15.5V35.5C0.347656 38.2578 2.60485 40.5 5.38112 40.5H26.3644C25.3498 39.7891 24.4375 38.9453 23.6432 38H5.38112C3.98906 38 2.86439 36.8828 2.86439 35.5V15.5H28.0317H33.0652H34.3236H35.5819V13V10.5C35.5819 7.74219 33.3247 5.5 30.5485 5.5H28.0317V1.75C28.0317 1.0625 27.4655 0.5 26.7734 0.5C26.0813 0.5 25.515 1.0625 25.515 1.75V5.5H10.4146V1.75ZM5.38112 8H30.5485C31.9405 8 33.0652 9.11719 33.0652 10.5V13H2.86439V10.5C2.86439 9.11719 3.98906 8 5.38112 8ZM25.515 29.25C25.515 26.9294 26.443 24.7038 28.095 23.0628C29.7469 21.4219 31.9874 20.5 34.3236 20.5C36.6597 20.5 38.9002 21.4219 40.5522 23.0628C42.2041 24.7038 43.1321 26.9294 43.1321 29.25C43.1321 31.5706 42.2041 33.7962 40.5522 35.4372C38.9002 37.0781 36.6597 38 34.3236 38C31.9874 38 29.7469 37.0781 28.095 35.4372C26.443 33.7962 25.515 31.5706 25.515 29.25ZM45.6489 29.25C45.6489 26.2663 44.4557 23.4048 42.3318 21.295C40.2079 19.1853 37.3272 18 34.3236 18C31.3199 18 28.4393 19.1853 26.3154 21.295C24.1915 23.4048 22.9983 26.2663 22.9983 29.25C22.9983 32.2337 24.1915 35.0952 26.3154 37.205C28.4393 39.3147 31.3199 40.5 34.3236 40.5C37.3272 40.5 40.2079 39.3147 42.3318 37.205C44.4557 35.0952 45.6489 32.2337 45.6489 29.25Z" fill="#99DDD8"/>
<path d="M32.7779 26.6582C32.739 26.7129 32.7078 26.791 32.7156 26.9395H32.7234V26.9473C32.7234 26.9863 32.7234 27.0957 33.0969 27.2988C33.5326 27.5332 34.1474 27.7129 34.9566 27.9395H34.9722C35.6958 28.1426 36.614 28.4004 37.3454 28.8379C38.1391 29.3066 38.9016 30.0957 38.9405 31.3613C38.9872 32.7832 38.1935 33.7363 37.252 34.2441C36.8007 34.4863 36.3105 34.6426 35.8281 34.7285V35.5566C35.8281 36.2441 35.2678 36.8066 34.5831 36.8066C33.8984 36.8066 33.3381 36.2441 33.3381 35.5566V34.666C32.6689 34.5254 32.0387 34.3301 31.494 34.1504C31.3617 34.1035 31.2294 34.0645 31.1049 34.0254C30.4513 33.8223 30.0856 33.1191 30.2879 32.4629C30.4902 31.8066 31.1905 31.4395 31.8441 31.6426C31.9998 31.6895 32.1476 31.7363 32.2954 31.7832C33.1825 32.0723 33.8828 32.291 34.622 32.3145C35.1433 32.3301 35.6958 32.2285 36.0615 32.0332C36.2327 31.9473 36.3261 31.8535 36.3728 31.7754C36.4117 31.7129 36.4583 31.6113 36.4506 31.4238C36.4506 31.3145 36.435 31.1973 36.0849 30.9863C35.6725 30.7441 35.0811 30.5645 34.2796 30.3379L34.1396 30.2988C33.4471 30.1035 32.5989 29.8613 31.9142 29.4941C31.1438 29.0723 30.3113 28.3457 30.2334 27.0957C30.1401 25.627 31.0116 24.6816 31.9297 24.1895C32.3733 23.9473 32.8557 23.791 33.3303 23.6973V22.9551C33.3303 22.2676 33.8906 21.7051 34.5753 21.7051C35.2601 21.7051 35.8203 22.2676 35.8203 22.9551V23.6816C36.3105 23.7598 36.7774 23.8613 37.2131 23.9707C37.8823 24.1348 38.2869 24.8145 38.1235 25.4863C37.9601 26.1582 37.2831 26.5645 36.614 26.4004C35.8903 26.2207 35.1978 26.0879 34.5598 26.0801C34.0773 26.0723 33.5015 26.1816 33.1047 26.3926C32.9179 26.4941 32.8246 26.5879 32.7779 26.6582Z" fill="#99DDD8"/>
<rect x="6.34766" y="18.5" width="6" height="6" rx="2" fill="#99DDD8"/>
</g>
<defs>
<clipPath id="clip0_6110_182800">
<rect width="45.3012" height="40" fill="white" transform="translate(0.347656 0.5)"/>
</clipPath>
</defs>
</svg>
