<svg width="16" height="16" viewBox="0 0 16 16" fill="none" xmlns="http://www.w3.org/2000/svg">
<g clip-path="url(#clip0_2287_4202)">
<path d="M14.5625 10.8125H10.6514L9.32568 12.1382C8.97266 12.4912 8.50098 12.6875 8 12.6875C7.49902 12.6875 7.02852 12.4925 6.67432 12.1382L5.34863 10.8125H1.4375C0.919824 10.8125 0.5 11.2323 0.5 11.75V14.5625C0.5 15.0802 0.919824 15.5 1.4375 15.5H14.5625C15.0802 15.5 15.5 15.0802 15.5 14.5625V11.75C15.5 11.2314 15.0811 10.8125 14.5625 10.8125ZM13.1562 13.8594C12.7695 13.8594 12.4531 13.543 12.4531 13.1562C12.4531 12.7695 12.7695 12.4531 13.1562 12.4531C13.543 12.4531 13.8594 12.7695 13.8594 13.1562C13.8594 13.543 13.543 13.8594 13.1562 13.8594ZM7.33789 11.4746C7.51953 11.6592 7.75977 11.75 8 11.75C8.24023 11.75 8.47988 11.6584 8.66269 11.4753L12.4127 7.72534C12.7786 7.35913 12.7786 6.76587 12.4127 6.39966C12.0465 6.03345 11.4529 6.03345 11.087 6.39966L8.9375 8.55078V1.4375C8.9375 0.919824 8.51768 0.5 8 0.5C7.48145 0.5 7.0625 0.919824 7.0625 1.4375V8.55078L4.91211 6.40039C4.54619 6.03418 3.95264 6.03418 3.58643 6.40039C3.22051 6.7666 3.22051 7.35986 3.58643 7.72607L7.33789 11.4746Z" fill="white"/>
</g>
<defs>
<clipPath id="clip0_2287_4202">
<rect width="16" height="16" fill="white"/>
</clipPath>
</defs>
</svg>
