<svg width="203" height="32" viewBox="0 0 203 32" fill="none" xmlns="http://www.w3.org/2000/svg">
            <g clip-path="url(#clip0_1353_12171)">
              <path
                d="M1.4064 14.7172L3.17188 12.9324V16.5324L4.6082 17.9926V11.675L6.29388 9.97138V19.7064L7.7701 21.2072V8.36915L9.45578 6.65538V22.921L10.932 24.4218V5.03287L12.6177 3.3191V26.0849L25.1955 13.3077L12.5977 0.5L0 13.3077L1.4064 14.7375V14.7172Z"
                fill="#848484"
              />
              <path
                d="M149.228 26.379C148.769 27.4133 148.17 28.3057 147.432 29.0561C146.694 29.8065 145.816 30.3845 144.799 30.8003C143.782 31.2161 142.645 31.4189 141.388 31.4189C139.892 31.4189 138.565 31.1248 137.418 30.5468C136.271 29.9688 135.293 29.1879 134.485 28.2246C133.678 27.2511 133.069 26.1254 132.66 24.8477C132.251 23.5599 132.042 22.2213 132.042 20.8117C132.042 19.3312 132.251 17.9318 132.67 16.6034C133.089 15.2851 133.707 14.129 134.525 13.1353C135.343 12.1415 136.341 11.3606 137.528 10.7826C138.715 10.2046 140.081 9.91052 141.637 9.91052C142.625 9.91052 143.612 10.0728 144.6 10.3871C145.577 10.7015 146.465 11.1578 147.263 11.7561C148.061 12.3544 148.709 13.0744 149.228 13.9262C149.746 14.778 150.026 15.7515 150.086 16.8366H148.18C148.091 16.0152 147.831 15.2851 147.422 14.6361C147.013 13.9871 146.505 13.4395 145.896 12.9831C145.288 12.5268 144.61 12.1719 143.861 11.9285C143.113 11.6851 142.365 11.5533 141.617 11.5533C140.35 11.5533 139.233 11.817 138.296 12.3443C137.348 12.8716 136.56 13.5612 135.922 14.413C135.283 15.2749 134.805 16.2484 134.495 17.3639C134.176 18.4692 134.017 19.605 134.017 20.7712C134.017 21.9373 134.166 23.0021 134.476 24.077C134.785 25.1519 135.244 26.1153 135.852 26.9468C136.46 27.7885 137.218 28.4679 138.136 28.975C139.054 29.4921 140.121 29.7457 141.338 29.7457C142.365 29.7457 143.273 29.5733 144.061 29.2285C144.849 28.8837 145.517 28.4071 146.076 27.7987C146.634 27.1902 147.093 26.4702 147.432 25.6488C147.771 24.8274 148.021 23.9249 148.18 22.9514H150.086C149.976 24.1886 149.687 25.3243 149.228 26.3587V26.379Z"
                fill="#B3B3B3"
              />
              <path
                d="M165.576 23.57C165.576 24.5841 165.426 25.5677 165.137 26.5108C164.848 27.4539 164.409 28.2854 163.82 29.0054C163.232 29.7254 162.514 30.2933 161.656 30.7192C160.798 31.1451 159.791 31.3479 158.644 31.3479C157.497 31.3479 156.509 31.1349 155.641 30.7192C154.774 30.2933 154.046 29.7254 153.477 29.0054C152.898 28.2854 152.47 27.4539 152.17 26.5108C151.881 25.5677 151.731 24.5942 151.731 23.57C151.731 22.5458 151.881 21.5824 152.17 20.6495C152.46 19.7165 152.898 18.8951 153.477 18.1752C154.055 17.4552 154.774 16.8772 155.641 16.4512C156.509 16.0152 157.517 15.8022 158.674 15.8022C159.831 15.8022 160.808 16.0152 161.676 16.4512C162.544 16.8873 163.262 17.4552 163.84 18.1752C164.419 18.8951 164.848 19.7165 165.147 20.6495C165.436 21.5824 165.586 22.5559 165.586 23.57H165.576ZM163.731 23.57C163.731 22.779 163.631 22.0083 163.422 21.2478C163.212 20.4872 162.903 19.8179 162.484 19.2298C162.065 18.6416 161.546 18.165 160.898 17.8C160.25 17.4349 159.512 17.2524 158.664 17.2524C157.816 17.2524 157.048 17.4349 156.399 17.8C155.751 18.165 155.223 18.6416 154.804 19.2298C154.385 19.8179 154.065 20.4872 153.856 21.2478C153.647 22.0083 153.547 22.779 153.547 23.57C153.547 24.361 153.647 25.1519 153.856 25.9023C154.065 26.6528 154.375 27.322 154.804 27.9203C155.223 28.5186 155.761 28.9952 156.399 29.3502C157.038 29.7051 157.796 29.8876 158.664 29.8876C159.531 29.8876 160.26 29.7051 160.898 29.3502C161.536 28.9952 162.065 28.5288 162.484 27.9406C162.903 27.3525 163.212 26.6832 163.422 25.9226C163.631 25.1621 163.731 24.3812 163.731 23.5801V23.57Z"
                fill="#B3B3B3"
              />
              <path
                d="M169.995 17.6682V31.2059H168.149V17.6682H166.623V16.3701H168.149V11.9184L169.965 10.0931V16.3803H171.521V17.6783H169.995V17.6682Z"
                fill="#B3B3B3"
              />
              <path
                d="M192.168 28.0927C191.819 28.7823 191.37 29.3705 190.821 29.8471C190.273 30.3237 189.634 30.6989 188.896 30.9524C188.158 31.2059 187.37 31.3377 186.512 31.3377C185.455 31.3377 184.497 31.1451 183.65 30.7496C182.802 30.3541 182.084 29.8167 181.505 29.1372C180.927 28.4578 180.478 27.6567 180.179 26.744C179.869 25.8314 179.72 24.8579 179.72 23.8235C179.72 22.7283 179.869 21.694 180.179 20.7103C180.488 19.7267 180.937 18.8749 181.525 18.1447C182.114 17.4146 182.852 16.8366 183.729 16.4208C184.607 15.9949 185.625 15.7921 186.772 15.7921C187.55 15.7921 188.278 15.9037 188.986 16.1369C189.684 16.3701 190.303 16.7048 190.841 17.1408C191.38 17.587 191.819 18.1245 192.168 18.7532C192.517 19.3819 192.736 20.112 192.836 20.9436L181.615 25.0911C181.695 25.7604 181.854 26.3891 182.114 26.9671C182.373 27.5451 182.702 28.0522 183.101 28.4781C183.51 28.9141 183.999 29.2488 184.577 29.5023C185.156 29.7558 185.814 29.8775 186.542 29.8775C187.161 29.8775 187.739 29.7761 188.268 29.5733C188.796 29.3705 189.255 29.0967 189.654 28.7417C190.053 28.3868 190.372 27.9508 190.622 27.4437C190.871 26.9367 191.021 26.3587 191.071 25.73H192.826C192.726 26.6122 192.507 27.4032 192.158 28.0927H192.168ZM189.445 18.0839C188.717 17.5363 187.839 17.2625 186.792 17.2625C185.884 17.2625 185.106 17.4349 184.458 17.7695C183.809 18.1042 183.271 18.5605 182.842 19.1183C182.413 19.6861 182.104 20.3351 181.894 21.0754C181.685 21.8157 181.575 22.5965 181.555 23.4179V23.8539L190.901 20.3656C190.652 19.3819 190.173 18.6214 189.445 18.0738V18.0839Z"
                fill="#B3B3B3"
              />
              <path
                d="M201.813 17.587C201.035 17.587 200.367 17.7391 199.798 18.0332C199.23 18.3273 198.761 18.7228 198.392 19.2095C198.023 19.6963 197.744 20.2641 197.554 20.9131C197.364 21.552 197.275 22.2314 197.275 22.9413V31.2059H195.429V16.3701H197.245V19.5137C197.664 18.3476 198.312 17.4653 199.21 16.8974C200.107 16.3194 201.165 16.0355 202.402 16.0355H202.701C202.801 16.0355 202.9 16.0355 203 16.0659L201.813 17.5972V17.587Z"
                fill="#B3B3B3"
              />
              <path
                d="M45.3338 20.8726C44.7852 20.4467 44.1468 20.1019 43.4187 19.8382C42.6906 19.5746 41.9425 19.3413 41.1744 19.1385C40.4164 18.9357 39.6783 18.743 38.9601 18.5808C38.242 18.4185 37.5836 18.2157 37.0151 17.9825C36.4466 17.7493 35.9778 17.4552 35.6187 17.1003C35.2596 16.7453 35.0701 16.289 35.0501 15.7313C35.0501 15.2242 35.1698 14.8085 35.3992 14.4738C35.6287 14.1392 35.9279 13.8755 36.2969 13.6727C36.666 13.48 37.065 13.3381 37.5138 13.2569C37.9527 13.1758 38.3716 13.1353 38.7507 13.1353C39.2693 13.1353 39.768 13.1961 40.2568 13.3279C40.7455 13.4598 41.1744 13.6626 41.5435 13.9262C41.9126 14.1899 42.2018 14.5549 42.4212 14.991C42.6407 15.427 42.7404 15.9544 42.7205 16.5729H46.5008C46.4609 15.3966 46.2315 14.3927 45.8126 13.5713C45.3936 12.7499 44.8251 12.0908 44.1169 11.5837C43.4087 11.0767 42.6008 10.7116 41.6732 10.4885C40.7555 10.2654 39.778 10.1539 38.7507 10.1539C37.8131 10.1539 36.8954 10.2654 36.0077 10.4885C35.12 10.7116 34.322 11.0767 33.6238 11.5635C32.9256 12.0603 32.357 12.6891 31.9281 13.4699C31.4992 14.2406 31.2798 15.1735 31.2798 16.2586C31.2798 17.2625 31.4793 18.0839 31.8683 18.7126C32.2673 19.3413 32.776 19.8484 33.4143 20.254C34.0527 20.6596 34.7609 20.974 35.5489 21.2174C36.3368 21.4607 37.1248 21.6838 37.9228 21.8866C38.7507 22.1097 39.4888 22.3126 40.1271 22.4849C40.7655 22.6675 41.3141 22.8703 41.7629 23.1035C42.2118 23.3368 42.5609 23.6207 42.8003 23.9553C43.0397 24.29 43.1594 24.726 43.1594 25.2736C43.1594 25.8212 43.0397 26.308 42.8103 26.6933C42.5808 27.0787 42.2916 27.3829 41.9325 27.6161C41.5734 27.8494 41.1744 28.0217 40.7156 28.1333C40.2668 28.2448 39.8179 28.3057 39.379 28.3057C38.6808 28.3057 38.0325 28.2246 37.454 28.0724C36.8655 27.9102 36.3568 27.6668 35.9379 27.3322C35.5189 26.9975 35.1798 26.5615 34.9504 26.024C34.711 25.4866 34.5913 24.8477 34.5913 24.077H30.5916C30.5916 25.5576 30.8908 26.7542 31.4893 27.6871C32.0877 28.62 32.8159 29.3502 33.6836 29.8876C34.5514 30.4251 35.4691 30.78 36.4366 30.9828C37.4141 31.1755 38.2819 31.2769 39.0599 31.2769C40.0473 31.2769 41.0348 31.1653 42.0123 30.9423C42.9898 30.7192 43.8576 30.3541 44.6156 29.8471C45.3737 29.34 45.9921 28.6809 46.4609 27.8696C46.9297 27.0584 47.1591 26.0646 47.1591 24.8883C47.1591 23.9148 46.9895 23.1137 46.6604 22.4748C46.3312 21.8359 45.8924 21.3086 45.3338 20.8726Z"
                fill="#848484"
              />
              <path
                d="M58.6996 24.5131C58.6996 25.0607 58.6397 25.5677 58.51 26.0443C58.3804 26.5209 58.1809 26.9469 57.9216 27.3221C57.6522 27.6973 57.3131 27.9913 56.9042 28.2043C56.4952 28.4172 55.9965 28.5288 55.4279 28.5288C54.8893 28.5288 54.4504 28.4375 54.0914 28.2449C53.7323 28.0522 53.443 27.8088 53.2236 27.4843C53.0041 27.1699 52.8446 26.7947 52.7548 26.3587C52.665 25.9328 52.6151 25.4663 52.6151 24.9796V16.6338H49.0044V26.4398C49.0044 27.9711 49.4532 29.1981 50.3509 30.1107C51.2486 31.0234 52.4556 31.4797 53.9617 31.4797C55.029 31.4797 55.9566 31.2668 56.7446 30.851C57.5325 30.4352 58.1909 29.7558 58.7295 28.8127V31.1349H62.3402V16.6237H58.6996V24.4928V24.5131Z"
                fill="#848484"
              />
              <path d="M82.0998 16.6541H78.489V31.1451H82.0998V16.6541Z" fill="#848484" />
              <path d="M90.3187 25.2838L87.3662 16.6541H83.5859L88.4435 31.1349H92.1939L97.0415 16.6541H93.2612L90.3187 25.2838Z" fill="#848484" />
              <path
                d="M108.911 17.8811C108.362 17.3437 107.704 16.9279 106.956 16.6439C106.198 16.36 105.39 16.2282 104.532 16.2282C103.425 16.2282 102.428 16.4209 101.53 16.8163C100.632 17.2118 99.8541 17.7493 99.2158 18.4388C98.5674 19.1284 98.0787 19.9498 97.7296 20.8929C97.3805 21.836 97.2009 22.8602 97.2009 23.9655C97.2009 25.0708 97.3805 26.0443 97.7395 26.9671C98.0986 27.8798 98.5974 28.6708 99.2257 29.3299C99.8641 29.9891 100.622 30.5164 101.5 30.8814C102.388 31.2566 103.345 31.4392 104.393 31.4392C105.33 31.4392 106.188 31.2769 106.956 30.9626C107.724 30.6482 108.382 30.202 108.911 29.6139V31.0741H112.522V16.5831H108.911V17.871V17.8811ZM108.911 25.6184C108.911 26.1052 108.791 26.5412 108.562 26.9266C108.332 27.3119 108.033 27.6364 107.654 27.8899C107.275 28.1536 106.866 28.3564 106.417 28.4882C105.968 28.6302 105.52 28.7012 105.081 28.7012C103.615 28.7012 102.527 28.2651 101.839 27.3829C101.151 26.5007 100.802 25.3649 100.802 23.9655C100.802 23.2759 100.882 22.6269 101.031 22.0185C101.191 21.4101 101.44 20.8827 101.789 20.4366C102.138 19.9904 102.597 19.6354 103.156 19.3718C103.714 19.1081 104.402 18.9763 105.21 18.9763C105.579 18.9763 105.978 19.0371 106.407 19.169C106.836 19.3008 107.235 19.4833 107.604 19.7166C107.973 19.9498 108.283 20.2337 108.532 20.5684C108.781 20.903 108.901 21.2782 108.901 21.694V25.6184H108.911Z"
                fill="#848484"
              />
              <path
                d="M127.204 17.6479C126.306 16.7453 125.1 16.289 123.593 16.289C122.506 16.289 121.569 16.502 120.781 16.9177C119.993 17.3335 119.334 18.0231 118.826 18.9763V16.6541H115.215V31.1451H118.826V23.2962C118.826 22.7689 118.885 22.2619 119.015 21.765C119.145 21.2681 119.344 20.8422 119.624 20.4771C119.903 20.112 120.242 19.818 120.661 19.5949C121.07 19.3718 121.569 19.2602 122.137 19.2602C122.666 19.2602 123.115 19.3515 123.474 19.5442C123.833 19.7267 124.122 19.9903 124.341 20.3148C124.561 20.6393 124.72 21.0247 124.81 21.4506C124.9 21.8765 124.95 22.343 124.95 22.8196V31.1451H128.561V21.3391C128.561 19.7875 128.112 18.5605 127.214 17.658L127.204 17.6479Z"
                fill="#848484"
              />
              <path d="M65.3127 31.1349H68.9235V10.2857L65.3127 13.9567V31.1349Z" fill="#848484" />
              <path d="M71.9058 31.1349H75.5165V10.2857L71.9058 13.9567V31.1349Z" fill="#848484" />
              <path
                d="M177.136 17.6682V31.2059H175.291V17.6682H173.765V16.3701H175.291V11.9184L177.106 10.0931V16.3803H178.662V17.6783H177.136V17.6682Z"
                fill="#B3B3B3"
              />
            </g>
            <defs>
              <clipPath id="clip0_1353_12171">
                <rect width="203" height="31" fill="white" transform="translate(0 0.5)" />
              </clipPath>
            </defs>
          </svg>